# xmcd CD database file
#
# Track frame offsets:
#	150
#	70419
#	120913
#	169891
#	204130
#	239497
#
# Disc length: 4052 seconds
#
# Revision: 0
# Processed by: cddbd v1.5.2PL0 Copyright (c) Steve Scherf et al.
# Submitted via: CDex 1.70beta2
#
DISCID=4b0fd206
DTITLE=Dino Betti Van Der Noot - Two ships in the night
DYEAR=2019
DGENRE=Jazz
TTITLE0=The Deafening Silence of the Stars
TTITLE1=Those Invisible Wings
TTITLE2=A thousand Twangling Instruments
TTITLE3=Blue Gal of My Life
TTITLE4=Something Old, Sometnihg New: Something Blues
TTITLE5=Two Ships in the Night
EXTD=YEAR: 2019
EXTT0=
EXTT1=
EXTT2=
EXTT3=
EXTT4=
EXTT5=
PLAYORDER=
